<svg width="255" height="256" viewBox="0 0 255 256" fill="none" xmlns="http://www.w3.org/2000/svg">
<path fill-rule="evenodd" clip-rule="evenodd" d="M111.079 0.655584C62.665 7.36558 21.585 41.0316 6.478 86.3796C1.412 101.586 0 110.57 0 127.591C0 144.612 1.412 153.596 6.478 168.802C18.675 205.413 49.617 236.359 86.221 248.553C101.439 253.623 110.419 255.035 127.444 255.035C144.469 255.035 153.449 253.623 168.667 248.553C205.271 236.359 236.213 205.413 248.41 168.802C253.476 153.596 254.888 144.612 254.888 127.591C254.888 110.566 253.476 101.586 248.406 86.3676C238.172 55.6476 213.986 27.9676 184.328 13.0326C175.811 8.74259 162.631 4.28758 151.944 2.08458C142.32 0.100584 120.57 -0.660416 111.079 0.655584ZM149.944 17.0676C194.642 26.5816 228.513 60.4576 237.956 105.091C244.819 137.528 236.221 172.374 214.686 199.4L212.846 201.709L211.024 195.9C204.038 173.636 187.488 154.65 165.444 143.609C161.869 141.819 158.812 140.238 158.651 140.097C158.49 139.955 161.252 137.06 164.789 133.664C188.677 110.726 186.128 72.6166 159.355 52.4146C140.45 38.1486 114.438 38.1486 95.533 52.4146C68.76 72.6166 66.211 110.726 90.099 133.664C93.636 137.06 96.398 139.955 96.237 140.097C96.076 140.238 93.019 141.819 89.444 143.609C67.467 154.616 50.829 173.704 43.864 195.9L42.042 201.709L40.202 199.4C18.685 172.397 10.091 137.558 16.937 105.091C24.109 71.0816 45.423 43.0606 76.029 27.4026C88.946 20.7946 94.772 18.9906 115.444 15.1956C120.587 14.2516 142.23 15.4256 149.944 17.0676ZM136.984 58.1426C165.452 65.5556 175.517 99.5666 155.757 121.581C137.957 141.41 104.703 136.528 92.655 112.316C82.027 90.9576 94.179 64.4526 117.468 58.1936C124.653 56.2626 129.714 56.2496 136.984 58.1426ZM145.782 152.144C149.171 153.004 155.769 155.571 160.444 157.849C167.456 161.265 170.616 163.662 178.494 171.541C186.373 179.419 188.77 182.579 192.186 189.591C196.176 197.779 199.444 208.091 199.444 212.49C199.444 216.925 178.135 229.796 162.311 234.921C150.234 238.831 141.739 240.091 127.444 240.091C119.925 240.091 110.842 239.474 106.944 238.699C90.855 235.498 74.092 228.295 61.9 219.342L55.196 214.419L55.811 209.932C59.025 186.484 78.666 163.21 102.614 154.469C107.134 152.82 113.332 151.073 116.388 150.587C123.69 149.425 138.062 150.187 145.782 152.144Z" fill="black"/>
</svg>
