<svg width="231" height="232" viewBox="0 0 231 232" fill="none" xmlns="http://www.w3.org/2000/svg">
<path fill-rule="evenodd" clip-rule="evenodd" d="M92.711 0.80909C88.014 2.18509 81.832 8.74809 80.471 13.8041C79.825 16.2011 79.479 22.9001 79.668 29.3401C79.999 40.6141 80.014 40.6751 83.269 43.9281C86.082 46.7391 87.231 47.1951 91.5 47.1951C95.77 47.1951 96.917 46.7391 99.731 43.9261C102.829 40.8281 103.018 40.2141 103.353 32.1761L103.705 23.6951H155.603H207.5V115.695V207.695H155.603H103.705L103.353 199.214C103.018 191.176 102.829 190.562 99.731 187.464C96.917 184.651 95.77 184.195 91.5 184.195C87.229 184.195 86.084 184.65 83.269 187.466L80 190.737V204.466C80 217.176 80.176 218.478 82.373 222.012C83.678 224.112 86.571 227.037 88.8 228.512L92.854 231.195H155.5H218.146L222.2 228.512C224.429 227.037 227.322 224.112 228.627 222.012L231 218.195V115.695V13.1951L228.627 9.37809C227.322 7.27809 224.43 4.35309 222.201 2.87809L218.148 0.19509L157.074 0.0200894C120.289 -0.0849106 94.692 0.22809 92.711 0.80909ZM120.263 60.2601C116.791 62.1441 114.5 66.5401 114.5 71.3181C114.5 74.7671 115.541 76.0901 128.685 89.3471L142.87 103.654L74.704 103.924L6.538 104.195L3.269 107.464C0.456 110.278 0 111.425 0 115.695C0 119.965 0.456 121.112 3.269 123.926L6.538 127.195L74.704 127.466L142.87 127.736L128.685 142.043C115.541 155.3 114.5 156.623 114.5 160.072C114.5 167.683 119.527 172.695 127.161 172.695C130.744 172.695 132.152 171.467 156.961 146.711L183 120.727V115.695V110.663L156.961 84.6791C131.583 59.3551 130.821 58.6961 126.961 58.7351C124.782 58.7571 121.768 59.4431 120.263 60.2601Z" fill="black"/>
</svg>
