<svg width="230" height="230" viewBox="0 0 230 230" fill="none" xmlns="http://www.w3.org/2000/svg">
<path fill-rule="evenodd" clip-rule="evenodd" d="M66.948 0.905968C54.428 2.10997 45.563 4.48597 35.31 9.38497C22.815 15.356 15.488 22.683 9.517 35.178C1.311 52.352 0 63.325 0 114.816C0 166.307 1.311 177.28 9.517 194.454C17.824 211.838 32.052 222.03 54.948 226.998C65.082 229.196 67.173 229.276 114.948 229.276C162.723 229.276 164.814 229.196 174.948 226.998C204.613 220.562 220.694 204.481 227.13 174.816C229.328 164.682 229.408 162.591 229.408 114.816C229.408 67.041 229.328 64.95 227.13 54.816C222.162 31.92 211.97 17.692 194.586 9.38497C184.065 4.35797 175.562 2.15997 161.448 0.817968C149.484 -0.319032 79.004 -0.253032 66.948 0.905968ZM160.882 16.894C191.94 19.803 205.761 31.194 211.75 58.816C214.165 69.954 214.165 159.678 211.75 170.816C206.367 195.646 195.778 206.235 170.948 211.618C159.81 214.033 70.086 214.033 58.948 211.618C31.326 205.629 19.935 191.808 17.026 160.75C15.639 145.948 15.64 83.672 17.027 68.865C20.202 34.97 34.691 20.049 67.448 16.94C80.686 15.684 147.612 15.651 160.882 16.894ZM73.369 67.941L63.081 78.065L60.379 75.941C56.751 73.087 52.457 73.216 49.403 76.271C45.571 80.102 46.155 83.718 51.578 89.749C56.839 95.601 61.182 98.225 64.307 97.441C65.487 97.145 72.863 90.436 80.7 82.532C92.011 71.123 94.948 67.601 94.948 65.443C94.948 61.665 90.86 57.816 86.848 57.816C84.149 57.816 82.075 59.373 73.369 67.941ZM113.021 76.451C110.295 79.916 110.401 83.069 113.361 86.51L115.775 89.316H146.948H178.121L180.535 86.51C183.495 83.069 183.601 79.916 180.875 76.451L178.803 73.816H146.948H115.093L113.021 76.451ZM84.948 132.518C84.123 132.806 78.849 137.582 73.228 143.131L63.008 153.221L60.486 150.852C56.969 147.548 52.309 147.695 49.29 151.205C45.509 155.601 46.214 158.225 53.107 165.403C58.464 170.982 59.738 171.816 62.901 171.816C66.252 171.816 67.65 170.694 80.743 157.489C96.115 141.984 97.057 140.247 92.698 135.453C90.275 132.787 87.349 131.679 84.948 132.518ZM115.448 149.024C110.387 151.926 109.474 157.433 113.403 161.361L115.857 163.816H146.948H178.039L180.493 161.361C183.796 158.059 183.632 154.346 180.025 150.739L177.102 147.816L147.275 147.846C126.723 147.867 116.826 148.233 115.448 149.024Z" fill="black"/>
</svg>
